<?xml version="1.0" standalone="no"?>
<!DOCTYPE svg PUBLIC "-//W3C//DTD SVG 20010904//EN"
 "http://www.w3.org/TR/2001/REC-SVG-20010904/DTD/svg10.dtd">
<svg version="1.0" xmlns="http://www.w3.org/2000/svg"
 width="512.000000pt" height="512.000000pt" viewBox="0 0 512.000000 512.000000"
 preserveAspectRatio="xMidYMid meet">
<metadata>
Created by potrace 1.11, written by Peter Selinger 2001-2013
</metadata>
<g transform="translate(0.000000,512.000000) scale(0.100000,-0.100000)"
fill="#000000" stroke="none">
<path d="M1613 5068 c-128 -121 -237 -236 -271 -288 -20 -30 -52 -95 -71 -145
-31 -83 -34 -99 -35 -205 -1 -132 3 -161 39 -249 61 -149 190 -289 334 -361
60 -30 132 -100 164 -158 73 -134 76 -316 7 -427 l-22 -35 -408 0 -408 0 -6
26 c-4 15 -22 50 -40 78 -102 158 -287 245 -443 207 -151 -36 -287 -165 -330
-311 -19 -67 -21 -283 -3 -350 7 -25 13 -52 15 -60 17 -85 110 -242 196 -329
136 -138 363 -238 434 -191 43 28 58 57 52 102 -7 52 -38 83 -95 97 -188 46
-344 201 -386 384 -17 74 -20 251 -6 309 21 83 87 134 180 142 139 11 224 -62
235 -200 4 -50 9 -63 35 -86 17 -16 38 -28 48 -29 9 0 226 -2 482 -3 495 -2
502 -2 581 -52 50 -31 91 -84 114 -146 17 -45 20 -83 21 -258 1 -229 6 -277
35 -364 41 -121 102 -214 201 -306 l59 -55 -25 -76 c-48 -148 -115 -248 -268
-402 -54 -54 -101 -110 -104 -124 -10 -37 12 -98 42 -118 35 -23 87 -22 121 3
15 11 69 62 118 113 124 129 209 252 261 377 13 32 27 56 31 55 5 -1 8 14 9
33 1 41 7 48 31 35 44 -25 146 -30 640 -31 454 0 527 1 553 15 53 27 70 94 39
152 -25 46 -42 48 -589 49 -283 1 -531 4 -550 7 -64 10 -149 48 -205 90 -117
90 -176 209 -181 367 -4 150 35 264 124 358 94 100 195 141 366 148 75 4 119
10 134 20 26 17 51 68 47 93 -2 9 -4 22 -4 29 -1 8 -15 27 -32 43 -30 28 -34
29 -133 29 -55 0 -130 -7 -166 -16 -95 -22 -215 -84 -298 -154 -41 -34 -74
-60 -75 -58 -64 129 -131 214 -204 259 -23 14 -33 27 -30 38 3 9 15 42 27 75
38 106 53 247 36 344 -20 108 -85 234 -174 333 -31 36 -140 116 -194 143 -191
96 -280 360 -189 559 25 57 53 91 173 213 79 80 146 151 150 159 26 45 1 116
-47 139 -57 27 -81 21 -142 -36z"/>
<path d="M3560 5113 c-140 -19 -302 -67 -424 -123 -33 -16 -64 -26 -68 -24 -5
3 -8 1 -8 -5 0 -6 -18 -20 -40 -31 -21 -11 -83 -53 -137 -94 -288 -217 -482
-525 -549 -872 -19 -95 -25 -335 -12 -434 23 -165 95 -379 139 -412 49 -37
118 -26 153 24 23 33 20 56 -23 186 -21 64 -44 149 -50 187 -23 137 -16 371
13 468 8 26 12 47 10 47 -7 0 63 186 91 241 78 152 212 308 352 408 305 218
678 280 1063 177 286 -77 557 -304 709 -594 32 -63 86 -213 96 -274 3 -17 7
-34 9 -37 8 -13 19 -132 20 -226 4 -198 -39 -371 -144 -579 -33 -65 -60 -124
-60 -132 0 -8 -5 -14 -10 -14 -6 0 -9 -3 -8 -7 1 -5 -10 -44 -24 -88 -15 -44
-32 -106 -39 -137 -7 -32 -17 -58 -23 -58 -7 0 -7 -3 1 -11 7 -7 7 -26 2 -56
-5 -26 -10 -90 -11 -143 l-3 -97 -27 25 c-15 14 -24 31 -21 36 4 6 3 8 -2 4
-4 -4 -33 12 -64 36 -96 75 -232 134 -350 153 -25 4 -349 8 -719 8 l-674 0
-29 -33 c-40 -45 -40 -99 0 -144 l29 -33 664 -1 c365 -1 681 -4 703 -7 228
-33 415 -197 470 -415 18 -71 24 -210 12 -277 -24 -134 -104 -260 -222 -349
-27 -21 -75 -62 -105 -90 -73 -69 -154 -142 -214 -191 -27 -22 -54 -45 -60
-51 -37 -35 -255 -192 -366 -262 -140 -89 -388 -222 -510 -272 -41 -17 -84
-35 -95 -40 -95 -45 -452 -160 -573 -185 -121 -25 -277 -54 -317 -60 -27 -3
-61 -8 -75 -10 -25 -3 -78 -9 -202 -21 -129 -12 -358 -11 -426 2 -111 20 -123
24 -194 54 -207 88 -360 258 -435 483 -25 75 -27 95 -27 242 -1 127 3 172 17
220 24 78 80 189 149 295 30 47 101 157 158 245 56 88 122 189 145 225 23 36
89 137 145 225 57 88 125 193 152 233 55 83 63 108 54 158 -11 58 -88 91 -148
63 -27 -12 -25 -9 -163 -224 -60 -93 -112 -172 -115 -175 -3 -3 -14 -21 -24
-40 -11 -19 -22 -37 -26 -40 -3 -3 -21 -30 -40 -60 -46 -73 -282 -439 -333
-515 -91 -137 -166 -324 -184 -460 -17 -131 -7 -283 27 -402 106 -378 445
-679 835 -743 54 -8 405 -6 480 4 17 2 62 7 100 11 39 4 79 9 90 11 11 2 42 7
70 10 27 3 92 14 145 25 52 11 109 22 125 25 40 7 179 42 235 59 216 66 515
175 587 214 10 5 72 37 138 69 66 33 149 77 185 97 36 21 70 38 77 38 7 0 10
3 8 7 -2 4 8 13 22 19 37 17 251 161 348 235 122 92 296 241 400 343 6 6 41
35 76 64 79 66 75 62 130 129 74 92 148 252 165 356 3 20 7 46 10 58 2 11 4
199 5 416 1 433 6 485 59 642 17 49 59 147 94 217 78 155 134 323 152 456 13
92 11 327 -2 409 -37 226 -128 441 -266 624 -54 72 -194 215 -268 273 -240
190 -550 297 -857 296 -71 0 -139 -2 -153 -4z"/>
<path d="M3920 3727 c-58 -15 -87 -62 -76 -122 10 -51 52 -81 125 -88 94 -10
144 -44 175 -118 16 -39 16 -148 -1 -189 -26 -62 -92 -108 -166 -114 -72 -7
-96 -17 -117 -51 -45 -73 -5 -152 81 -162 85 -10 205 38 288 115 164 152 189
376 60 548 -93 125 -263 209 -369 181z"/>
<path d="M890 2423 c-35 -33 -44 -74 -25 -119 23 -55 89 -78 143 -50 96 50 60
196 -48 196 -29 0 -47 -7 -70 -27z"/>
</g>
</svg>
